<svg xmlns="http://www.w3.org/2000/svg" viewBox="0 0 128 128" width="128" height="128">
  <defs>
    <linearGradient id="grad1" x1="0%" y1="0%" x2="100%" y2="100%">
      <stop offset="0%" style="stop-color:#fa7803;stop-opacity:1" />
      <stop offset="100%" style="stop-color:#b55603;stop-opacity:1" />
    </linearGradient>
  </defs>
  
  <!-- Background circle -->
  <circle cx="64" cy="64" r="60" fill="url(#grad1)"/>
  
  <!-- Globe -->
  <circle cx="64" cy="64" r="40" fill="none" stroke="white" stroke-width="3"/>
  
  <!-- Horizontal lines -->
  <ellipse cx="64" cy="64" rx="40" ry="10" fill="none" stroke="white" stroke-width="2" opacity="0.8"/>
  <ellipse cx="64" cy="64" rx="40" ry="20" fill="none" stroke="white" stroke-width="2" opacity="0.6"/>
  
  <!-- Vertical line -->
  <ellipse cx="64" cy="64" rx="10" ry="40" fill="none" stroke="white" stroke-width="2" opacity="0.8"/>
  
  <!-- Continents style decoration -->
  <path d="M 45 50 Q 50 45 55 50 L 58 55 L 52 58 Z" fill="white" opacity="0.9"/>
  <path d="M 70 48 Q 75 45 80 50 L 82 58 L 75 60 L 68 55 Z" fill="white" opacity="0.9"/>
  <path d="M 50 70 Q 55 68 60 70 L 62 78 L 55 80 L 48 75 Z" fill="white" opacity="0.9"/>
  
  <!-- Check mark -->
  <path d="M 90 25 L 95 30 L 110 15" fill="none" stroke="#4ade80" stroke-width="4" stroke-linecap="round" stroke-linejoin="round"/>
</svg>

